ffmpeg started on 2025-06-07 at 16:35:27
Report written to "D:\Convert\FFMetrics\reports\ssim_report-6.txt"
Log level: 32
Command line:
ffmpeg -hide_banner -nostdin -i "G:\\\xc0\xed\xe8\xec\xe5\\\xce\xed\xe3\xee\xe8\xed\xe3\xe8\\!_36_\xce\xf1\xe5\xed\xfc_2024\\DreamCast\\\xd6\xe8\xea\xeb \xe8\xf1\xf2\xee\xf0\xe8\xe9 - \xcc\xe5\xe6\xf1\xe5\xe7\xee\xed\xfc\xe5 \xe8 \xf1\xe5\xe7\xee\xed \xec\xee\xed\xf1\xf2\xf0\xee\xe2\\DC_Monogatari_Series_Off_and_Monster_Season_05_Telegram_HEVC.mkv" -i "G:\\\xc0\xed\xe8\xec\xe5\\\xce\xed\xe3\xee\xe8\xed\xe3\xe8\\!_36_\xce\xf1\xe5\xed\xfc_2024\\DreamCast\\\xd6\xe8\xea\xeb \xe8\xf1\xf2\xee\xf0\xe8\xe9 - \xcc\xe5\xe6\xf1\xe5\xe7\xee\xed\xfc\xe5 \xe8 \xf1\xe5\xe7\xee\xed \xec\xee\xed\xf1\xf2\xf0\xee\xe2\\DC_Monogatari_Series_Off_and_Monster_Season_05_Telegram.mp4" -lavfi "[0:v]settb=AVTB,setpts=PTS-STARTPTS,format=pix_fmts=yuv420p10,fps=24000/1001,scale=1920:1080:flags=bicubic[main];[1:v]settb=AVTB,setpts=PTS-STARTPTS,format=pix_fmts=yuv420p,fps=24000/1001,scale=1920:1080:flags=bicubic[ref];[main][ref]ssim=eof_action=endall:stats_file='D\\:/Convert/FFMetrics/logs/ssim_logfile-6.txt'" -f null -
Input #0, matroska,webm, from 'G:\Аниме\Онгоинги\!_36_Осень_2024\DreamCast\Цикл историй - Межсезонье и сезон монстров\DC_Monogatari_Series_Off_and_Monster_Season_05_Telegram_HEVC.mkv':
  Metadata:
    COMPATIBLE_BRANDS: isomiso2avc1mp41
    MAJOR_BRAND     : isom
    MINOR_VERSION   : 512
    ENCODER         : Lavf61.7.100
  Duration: 00:25:13.47, start: -0.021000, bitrate: 1692 kb/s
  Stream #0:0: Video: hevc (Main 10), yuv420p10le(tv, bt709, progressive), 1920x1080 [SAR 1:1 DAR 16:9], 23.98 fps, 23.98 tbr, 1k tbn (default)
      Metadata:
        HANDLER_NAME    : VideoHandler
        VENDOR_ID       : [0][0][0][0]
        ENCODER         : Lavc61.19.100 libx265
        BPS             : 1497662
        DURATION        : 00:25:11.551708333
        NUMBER_OF_FRAMES: 36241
        NUMBER_OF_BYTES : 282974116
        _STATISTICS_WRITING_APP: mkvpropedit v66.0.0 ('Josie') 64-bit
        _STATISTICS_WRITING_DATE_UTC: 2025-06-05 10:48:36
        _STATISTICS_TAGS: BPS DURATION NUMBER_OF_FRAMES NUMBER_OF_BYTES
  Stream #0:1: Audio: aac (LC), 48000 Hz, stereo, fltp (default)
      Metadata:
        HANDLER_NAME    : SoundHandler
        VENDOR_ID       : [0][0][0][0]
        ENCODER         : Lavc61.19.100 aac
        BPS             : 192520
        DURATION        : 00:25:13.472000000
        NUMBER_OF_FRAMES: 70945
        NUMBER_OF_BYTES : 36421738
        _STATISTICS_WRITING_APP: mkvpropedit v66.0.0 ('Josie') 64-bit
        _STATISTICS_WRITING_DATE_UTC: 2025-06-05 10:48:36
        _STATISTICS_TAGS: BPS DURATION NUMBER_OF_FRAMES NUMBER_OF_BYTES
Input #1, mov,mp4,m4a,3gp,3g2,mj2, from 'G:\Аниме\Онгоинги\!_36_Осень_2024\DreamCast\Цикл историй - Межсезонье и сезон монстров\DC_Monogatari_Series_Off_and_Monster_Season_05_Telegram.mp4':
  Metadata:
    major_brand     : isom
    minor_version   : 512
    compatible_brands: isomiso2avc1mp41
    encoder         : Lavf61.1.100
  Duration: 00:25:13.41, start: 0.000000, bitrate: 3562 kb/s
  Stream #1:0[0x1](und): Video: h264 (High) (avc1 / 0x31637661), yuv420p(tv, bt709, progressive), 1920x1080 [SAR 1:1 DAR 16:9], 3418 kb/s, 23.98 fps, 23.98 tbr, 24k tbn (default)
      Metadata:
        handler_name    : VideoHandler
        vendor_id       : [0][0][0][0]
        encoder         : Lavc61.3.100 h264_qsv
  Stream #1:1[0x2](und): Audio: aac (HE-AACv2) (mp4a / 0x6134706D), 48000 Hz, stereo, fltp, 144 kb/s (default)
      Metadata:
        handler_name    : SoundHandler
        vendor_id       : [0][0][0][0]
Stream mapping:
  Stream #0:0 (hevc) -> settb:default
  Stream #1:0 (h264) -> settb:default
  ssim:default -> Stream #0:0 (wrapped_avframe)
  Stream #0:1 -> #0:1 (aac (native) -> pcm_s16le (native))
Output #0, null, to 'pipe:':
  Metadata:
    COMPATIBLE_BRANDS: isomiso2avc1mp41
    MAJOR_BRAND     : isom
    MINOR_VERSION   : 512
    encoder         : Lavf61.7.100
  Stream #0:0: Video: wrapped_avframe, yuv420p10le(tv, bt709, progressive), 1920x1080 [SAR 1:1 DAR 16:9], q=2-31, 200 kb/s, 23.98 fps, 23.98 tbn
      Metadata:
        encoder         : Lavc61.19.100 wrapped_avframe
  Stream #0:1: Audio: pcm_s16le, 48000 Hz, stereo, s16, 1536 kb/s (default)
      Metadata:
        HANDLER_NAME    : SoundHandler
        VENDOR_ID       : [0][0][0][0]
        _STATISTICS_TAGS: BPS DURATION NUMBER_OF_FRAMES NUMBER_OF_BYTES
        BPS             : 192520
        DURATION        : 00:25:13.472000000
        NUMBER_OF_FRAMES: 70945
        NUMBER_OF_BYTES : 36421738
        _STATISTICS_WRITING_APP: mkvpropedit v66.0.0 ('Josie') 64-bit
        _STATISTICS_WRITING_DATE_UTC: 2025-06-05 10:48:36
        encoder         : Lavc61.19.100 pcm_s16le
frame=  166 fps=0.0 q=-0.0 size=N/A time=00:00:06.92 bitrate=N/A speed=13.6x    frame=  385 fps=371 q=-0.0 size=N/A time=00:00:16.05 bitrate=N/A speed=15.5x    frame=  650 fps=419 q=-0.0 size=N/A time=00:00:27.11 bitrate=N/A speed=17.5x    frame=  899 fps=436 q=-0.0 size=N/A time=00:00:37.49 bitrate=N/A speed=18.2x    frame= 1198 fps=463 q=-0.0 size=N/A time=00:00:49.96 bitrate=N/A speed=19.3x    frame= 1475 fps=476 q=-0.0 size=N/A time=00:01:01.51 bitrate=N/A speed=19.9x    frame= 1764 fps=489 q=-0.0 size=N/A time=00:01:13.57 bitrate=N/A speed=20.4x    frame= 1978 fps=479 q=-0.0 size=N/A time=00:01:22.49 bitrate=N/A speed=  20x    frame= 2193 fps=472 q=-0.0 size=N/A time=00:01:31.46 bitrate=N/A speed=19.7x    frame= 2460 fps=476 q=-0.0 size=N/A time=00:01:42.60 bitrate=N/A speed=19.9x    frame= 2746 fps=484 q=-0.0 size=N/A time=00:01:54.53 bitrate=N/A speed=20.2x    frame= 2998 fps=484 q=-0.0 size=N/A time=00:02:05.04 bitrate=N/A speed=20.2x    frame= 3230 fps=482 q=-0.0 size=N/A time=00:02:14.71 bitrate=N/A speed=20.1x    frame= 3431 fps=475 q=-0.0 size=N/A time=00:02:23.10 bitrate=N/A speed=19.8x    frame= 3651 fps=472 q=-0.0 size=N/A time=00:02:32.27 bitrate=N/A speed=19.7x    frame= 3868 fps=468 q=-0.0 size=N/A time=00:02:41.32 bitrate=N/A speed=19.5x    frame= 4139 fps=472 q=-0.0 size=N/A time=00:02:52.63 bitrate=N/A speed=19.7x    frame= 4420 fps=476 q=-0.0 size=N/A time=00:03:04.35 bitrate=N/A speed=19.8x    frame= 4698 fps=479 q=-0.0 size=N/A time=00:03:15.94 bitrate=N/A speed=  20x    frame= 4944 fps=479 q=-0.0 size=N/A time=00:03:26.20 bitrate=N/A speed=  20x    frame= 5164 fps=477 q=-0.0 size=N/A time=00:03:35.38 bitrate=N/A speed=19.9x    frame= 5410 fps=477 q=-0.0 size=N/A time=00:03:45.64 bitrate=N/A speed=19.9x    frame= 5666 fps=478 q=-0.0 size=N/A time=00:03:56.31 bitrate=N/A speed=19.9x    frame= 5894 fps=476 q=-0.0 size=N/A time=00:04:05.82 bitrate=N/A speed=19.9x    frame= 6133 fps=476 q=-0.0 size=N/A time=00:04:15.79 bitrate=N/A speed=19.9x    frame= 6354 fps=474 q=-0.0 size=N/A time=00:04:25.01 bitrate=N/A speed=19.8x    frame= 6588 fps=473 q=-0.0 size=N/A time=00:04:34.77 bitrate=N/A speed=19.7x    frame= 6797 fps=471 q=-0.0 size=N/A time=00:04:43.49 bitrate=N/A speed=19.6x    frame= 7007 fps=468 q=-0.0 size=N/A time=00:04:52.25 bitrate=N/A speed=19.5x    frame= 7224 fps=467 q=-0.0 size=N/A time=00:05:01.30 bitrate=N/A speed=19.5x    frame= 7435 fps=465 q=-0.0 size=N/A time=00:05:10.10 bitrate=N/A speed=19.4x    frame= 7669 fps=465 q=-0.0 size=N/A time=00:05:19.86 bitrate=N/A speed=19.4x    frame= 7882 fps=463 q=-0.0 size=N/A time=00:05:28.74 bitrate=N/A speed=19.3x    frame= 8109 fps=462 q=-0.0 size=N/A time=00:05:38.21 bitrate=N/A speed=19.3x    frame= 8305 fps=460 q=-0.0 size=N/A time=00:05:46.38 bitrate=N/A speed=19.2x    frame= 8549 fps=460 q=-0.0 size=N/A time=00:05:56.56 bitrate=N/A speed=19.2x    frame= 8769 fps=459 q=-0.0 size=N/A time=00:06:05.74 bitrate=N/A speed=19.1x    frame= 9001 fps=459 q=-0.0 size=N/A time=00:06:15.41 bitrate=N/A speed=19.1x    frame= 9260 fps=460 q=-0.0 size=N/A time=00:06:26.21 bitrate=N/A speed=19.2x    frame= 9514 fps=461 q=-0.0 size=N/A time=00:06:36.81 bitrate=N/A speed=19.2x    frame= 9713 fps=459 q=-0.0 size=N/A time=00:06:45.11 bitrate=N/A speed=19.1x    frame= 9930 fps=458 q=-0.0 size=N/A time=00:06:54.16 bitrate=N/A speed=19.1x    frame=10146 fps=457 q=-0.0 size=N/A time=00:07:03.17 bitrate=N/A speed=19.1x    frame=10413 fps=458 q=-0.0 size=N/A time=00:07:14.30 bitrate=N/A speed=19.1x    frame=10640 fps=458 q=-0.0 size=N/A time=00:07:23.77 bitrate=N/A speed=19.1x    frame=10855 fps=457 q=-0.0 size=N/A time=00:07:32.74 bitrate=N/A speed=19.1x    frame=11081 fps=457 q=-0.0 size=N/A time=00:07:42.17 bitrate=N/A speed=19.1x    frame=11312 fps=457 q=-0.0 size=N/A time=00:07:51.80 bitrate=N/A speed=  19x    frame=11572 fps=458 q=-0.0 size=N/A time=00:08:02.64 bitrate=N/A speed=19.1x    frame=11763 fps=456 q=-0.0 size=N/A time=00:08:10.61 bitrate=N/A speed=  19x    frame=11990 fps=456 q=-0.0 size=N/A time=00:08:20.08 bitrate=N/A speed=  19x    frame=12266 fps=457 q=-0.0 size=N/A time=00:08:31.59 bitrate=N/A speed=19.1x    frame=12528 fps=458 q=-0.0 size=N/A time=00:08:42.52 bitrate=N/A speed=19.1x    frame=12791 fps=459 q=-0.0 size=N/A time=00:08:53.49 bitrate=N/A speed=19.1x    frame=13071 fps=461 q=-0.0 size=N/A time=00:09:05.16 bitrate=N/A speed=19.2x    frame=13332 fps=461 q=-0.0 size=N/A time=00:09:16.05 bitrate=N/A speed=19.2x    frame=13611 fps=463 q=-0.0 size=N/A time=00:09:27.69 bitrate=N/A speed=19.3x    frame=13875 fps=464 q=-0.0 size=N/A time=00:09:38.70 bitrate=N/A speed=19.3x    frame=14129 fps=464 q=-0.0 size=N/A time=00:09:49.29 bitrate=N/A speed=19.4x    frame=14374 fps=464 q=-0.0 size=N/A time=00:09:59.51 bitrate=N/A speed=19.4x    frame=14607 fps=464 q=-0.0 size=N/A time=00:10:09.23 bitrate=N/A speed=19.4x    frame=14852 fps=464 q=-0.0 size=N/A time=00:10:19.45 bitrate=N/A speed=19.4x    frame=15089 fps=464 q=-0.0 size=N/A time=00:10:29.33 bitrate=N/A speed=19.4x    frame=15316 fps=464 q=-0.0 size=N/A time=00:10:38.80 bitrate=N/A speed=19.3x    frame=15530 fps=463 q=-0.0 size=N/A time=00:10:47.73 bitrate=N/A speed=19.3x    frame=15804 fps=464 q=-0.0 size=N/A time=00:10:59.15 bitrate=N/A speed=19.4x    frame=16087 fps=465 q=-0.0 size=N/A time=00:11:10.96 bitrate=N/A speed=19.4x    frame=16301 fps=465 q=-0.0 size=N/A time=00:11:19.88 bitrate=N/A speed=19.4x    frame=16574 fps=466 q=-0.0 size=N/A time=00:11:31.27 bitrate=N/A speed=19.4x    frame=16813 fps=466 q=-0.0 size=N/A time=00:11:41.24 bitrate=N/A speed=19.4x    frame=17060 fps=466 q=-0.0 size=N/A time=00:11:51.54 bitrate=N/A speed=19.4x    frame=17299 fps=466 q=-0.0 size=N/A time=00:12:01.51 bitrate=N/A speed=19.4x    frame=17541 fps=466 q=-0.0 size=N/A time=00:12:11.60 bitrate=N/A speed=19.4x    frame=17720 fps=464 q=-0.0 size=N/A time=00:12:19.07 bitrate=N/A speed=19.4x    frame=17905 fps=463 q=-0.0 size=N/A time=00:12:26.78 bitrate=N/A speed=19.3x    frame=18121 fps=462 q=-0.0 size=N/A time=00:12:35.79 bitrate=N/A speed=19.3x    frame=18338 fps=462 q=-0.0 size=N/A time=00:12:44.84 bitrate=N/A speed=19.3x    frame=18616 fps=463 q=-0.0 size=N/A time=00:12:56.44 bitrate=N/A speed=19.3x    frame=18892 fps=464 q=-0.0 size=N/A time=00:13:07.95 bitrate=N/A speed=19.3x    frame=19163 fps=464 q=-0.0 size=N/A time=00:13:19.25 bitrate=N/A speed=19.4x    frame=19445 fps=465 q=-0.0 size=N/A time=00:13:31.01 bitrate=N/A speed=19.4x    frame=19736 fps=467 q=-0.0 size=N/A time=00:13:43.15 bitrate=N/A speed=19.5x    frame=20037 fps=468 q=-0.0 size=N/A time=00:13:55.70 bitrate=N/A speed=19.5x    frame=20320 fps=469 q=-0.0 size=N/A time=00:14:07.51 bitrate=N/A speed=19.6x    frame=20572 fps=469 q=-0.0 size=N/A time=00:14:18.02 bitrate=N/A speed=19.6x    frame=20826 fps=469 q=-0.0 size=N/A time=00:14:28.61 bitrate=N/A speed=19.6x    frame=21107 fps=470 q=-0.0 size=N/A time=00:14:40.33 bitrate=N/A speed=19.6x    frame=21398 fps=471 q=-0.0 size=N/A time=00:14:52.47 bitrate=N/A speed=19.7x    frame=21651 fps=472 q=-0.0 size=N/A time=00:15:03.02 bitrate=N/A speed=19.7x    frame=21902 fps=472 q=-0.0 size=N/A time=00:15:13.49 bitrate=N/A speed=19.7x    frame=22186 fps=473 q=-0.0 size=N/A time=00:15:25.34 bitrate=N/A speed=19.7x    frame=22474 fps=474 q=-0.0 size=N/A time=00:15:37.35 bitrate=N/A speed=19.8x    frame=22728 fps=474 q=-0.0 size=N/A time=00:15:47.94 bitrate=N/A speed=19.8x    frame=22973 fps=474 q=-0.0 size=N/A time=00:15:58.16 bitrate=N/A speed=19.8x    frame=23253 fps=475 q=-0.0 size=N/A time=00:16:09.84 bitrate=N/A speed=19.8x    frame=23531 fps=475 q=-0.0 size=N/A time=00:16:21.43 bitrate=N/A speed=19.8x    frame=23794 fps=476 q=-0.0 size=N/A time=00:16:32.40 bitrate=N/A speed=19.8x    frame=24079 fps=476 q=-0.0 size=N/A time=00:16:44.29 bitrate=N/A speed=19.9x    frame=24255 fps=475 q=-0.0 size=N/A time=00:16:51.63 bitrate=N/A speed=19.8x    frame=24506 fps=475 q=-0.0 size=N/A time=00:17:02.14 bitrate=N/A speed=19.8x    frame=24756 fps=475 q=-0.0 size=N/A time=00:17:12.53 bitrate=N/A speed=19.8x    frame=25036 fps=476 q=-0.0 size=N/A time=00:17:24.20 bitrate=N/A speed=19.8x    frame=25309 fps=476 q=-0.0 size=N/A time=00:17:35.59 bitrate=N/A speed=19.9x    frame=25591 fps=477 q=-0.0 size=N/A time=00:17:47.35 bitrate=N/A speed=19.9x    frame=25836 fps=477 q=-0.0 size=N/A time=00:17:57.57 bitrate=N/A speed=19.9x    frame=26068 fps=477 q=-0.0 size=N/A time=00:18:07.25 bitrate=N/A speed=19.9x    frame=26164 fps=474 q=-0.0 size=N/A time=00:18:11.25 bitrate=N/A speed=19.8x    frame=26418 fps=474 q=-0.0 size=N/A time=00:18:21.85 bitrate=N/A speed=19.8x    frame=26636 fps=474 q=-0.0 size=N/A time=00:18:30.94 bitrate=N/A speed=19.8x    frame=26890 fps=474 q=-0.0 size=N/A time=00:18:41.53 bitrate=N/A speed=19.8x    frame=27112 fps=474 q=-0.0 size=N/A time=00:18:50.79 bitrate=N/A speed=19.8x    frame=27350 fps=473 q=-0.0 size=N/A time=00:19:00.72 bitrate=N/A speed=19.7x    frame=27602 fps=474 q=-0.0 size=N/A time=00:19:11.23 bitrate=N/A speed=19.8x    frame=27871 fps=474 q=-0.0 size=N/A time=00:19:22.45 bitrate=N/A speed=19.8x    frame=28070 fps=473 q=-0.0 size=N/A time=00:19:30.75 bitrate=N/A speed=19.7x    frame=28341 fps=474 q=-0.0 size=N/A time=00:19:42.05 bitrate=N/A speed=19.8x    frame=28591 fps=474 q=-0.0 size=N/A time=00:19:52.48 bitrate=N/A speed=19.8x    frame=28798 fps=473 q=-0.0 size=N/A time=00:20:01.11 bitrate=N/A speed=19.7x    frame=29050 fps=473 q=-0.0 size=N/A time=00:20:11.62 bitrate=N/A speed=19.7x    frame=29291 fps=473 q=-0.0 size=N/A time=00:20:21.67 bitrate=N/A speed=19.7x    frame=29558 fps=474 q=-0.0 size=N/A time=00:20:32.81 bitrate=N/A speed=19.8x    frame=29807 fps=474 q=-0.0 size=N/A time=00:20:43.20 bitrate=N/A speed=19.8x    frame=30085 fps=474 q=-0.0 size=N/A time=00:20:54.79 bitrate=N/A speed=19.8x    frame=30360 fps=475 q=-0.0 size=N/A time=00:21:06.26 bitrate=N/A speed=19.8x    frame=30642 fps=475 q=-0.0 size=N/A time=00:21:18.02 bitrate=N/A speed=19.8x    frame=30894 fps=475 q=-0.0 size=N/A time=00:21:28.53 bitrate=N/A speed=19.8x    frame=31166 fps=476 q=-0.0 size=N/A time=00:21:39.88 bitrate=N/A speed=19.8x    frame=31419 fps=476 q=-0.0 size=N/A time=00:21:50.43 bitrate=N/A speed=19.8x    frame=31683 fps=476 q=-0.0 size=N/A time=00:22:01.44 bitrate=N/A speed=19.9x    frame=31954 fps=477 q=-0.0 size=N/A time=00:22:12.74 bitrate=N/A speed=19.9x    frame=32233 fps=477 q=-0.0 size=N/A time=00:22:24.38 bitrate=N/A speed=19.9x    frame=32473 fps=477 q=-0.0 size=N/A time=00:22:34.39 bitrate=N/A speed=19.9x    frame=32642 fps=476 q=-0.0 size=N/A time=00:22:41.44 bitrate=N/A speed=19.8x    frame=32867 fps=476 q=-0.0 size=N/A time=00:22:50.82 bitrate=N/A speed=19.8x    frame=33052 fps=475 q=-0.0 size=N/A time=00:22:58.54 bitrate=N/A speed=19.8x    frame=33282 fps=475 q=-0.0 size=N/A time=00:23:08.13 bitrate=N/A speed=19.8x    frame=33524 fps=474 q=-0.0 size=N/A time=00:23:18.23 bitrate=N/A speed=19.8x    frame=33751 fps=474 q=-0.0 size=N/A time=00:23:27.69 bitrate=N/A speed=19.8x    frame=33970 fps=474 q=-0.0 size=N/A time=00:23:36.83 bitrate=N/A speed=19.8x    frame=34198 fps=474 q=-0.0 size=N/A time=00:23:46.34 bitrate=N/A speed=19.8x    frame=34358 fps=472 q=-0.0 size=N/A time=00:23:53.01 bitrate=N/A speed=19.7x    frame=34482 fps=471 q=-0.0 size=N/A time=00:23:58.18 bitrate=N/A speed=19.6x    frame=34593 fps=469 q=-0.0 size=N/A time=00:24:02.81 bitrate=N/A speed=19.6x    frame=34740 fps=468 q=-0.0 size=N/A time=00:24:08.94 bitrate=N/A speed=19.5x    frame=34875 fps=466 q=-0.0 size=N/A time=00:24:14.57 bitrate=N/A speed=19.5x    frame=35007 fps=465 q=-0.0 size=N/A time=00:24:20.08 bitrate=N/A speed=19.4x    frame=35146 fps=464 q=-0.0 size=N/A time=00:24:25.88 bitrate=N/A speed=19.3x    frame=35267 fps=462 q=-0.0 size=N/A time=00:24:30.92 bitrate=N/A speed=19.3x    frame=35430 fps=461 q=-0.0 size=N/A time=00:24:37.72 bitrate=N/A speed=19.2x    frame=35577 fps=460 q=-0.0 size=N/A time=00:24:43.85 bitrate=N/A speed=19.2x    frame=35719 fps=459 q=-0.0 size=N/A time=00:24:49.77 bitrate=N/A speed=19.1x    frame=35868 fps=458 q=-0.0 size=N/A time=00:24:55.99 bitrate=N/A speed=19.1x    frame=36012 fps=456 q=-0.0 size=N/A time=00:25:02.00 bitrate=N/A speed=  19x    frame=36148 fps=455 q=-0.0 size=N/A time=00:25:07.67 bitrate=N/A speed=  19x    [Parsed_ssim_10 @ 000001c61f426f40] SSIM Y:0.994447 (22.554647) U:0.994121 (22.306617) V:0.993677 (21.990459) All:0.994264 (22.413995)
[out#0/null @ 000001c612352280] video:15572KiB audio:283780KiB subtitle:0KiB other streams:0KiB global headers:0KiB muxing overhead: unknown
frame=36241 fps=455 q=-0.0 Lsize=N/A time=00:25:11.55 bitrate=N/A speed=  19x    
